<?xml version="1.0" encoding="UTF-8" standalone="no"?><!DOCTYPE svg PUBLIC "-//W3C//DTD SVG 1.1//EN" "http://www.w3.org/Graphics/SVG/1.1/DTD/svg11.dtd"><svg width="100%" height="100%" viewBox="0 0 4252 4252" version="1.1" xmlns="http://www.w3.org/2000/svg" xmlns:xlink="http://www.w3.org/1999/xlink" xml:space="preserve" xmlns:serif="http://www.serif.com/" style="fill-rule:evenodd;clip-rule:evenodd;stroke-linejoin:round;stroke-miterlimit:2;"><circle cx="2125.984" cy="2125.984" r="2125.984" style="fill:#fff;"/><path d="M2217.594,2960.726c-203.633,36.243 -669.723,-47.366 -929.808,-166.804c-271.557,-124.681 -451.061,-267.402 -658.082,-523.252c-37.681,-46.492 -37.604,-59.541 0.539,-206.721c54.157,-208.913 123.991,-381.227 222.389,-548.297c63.274,-107.53 74.561,-110.24 106.96,-25.92c36.51,95.088 91.038,177.305 149.753,225.901c103.588,85.55 268.277,162.776 405.188,189.91c38.605,7.702 91.761,21.536 118.247,30.822c82.938,28.986 245.426,69.879 319.802,80.381c116.522,16.544 287.387,-15.937 458.714,-87.12c33.862,-14.1 77.918,-30.556 97.952,-36.599c20.034,-6.132 70.557,-26.186 112.242,-44.567l75.747,-33.533c0,0 167.261,134.323 141.468,212.675c-35.479,107.796 -188.712,430.267 -244.147,483.409c-13.659,13.138 -19.033,11.464 -69.279,-21.536c-113.704,-74.693 -238.142,-112.684 -394.255,-120.652c-57.899,-2.888 -125.438,-2.37 -150.2,1.229l-44.964,6.473l27.225,20.928c15.014,11.464 51.894,33.444 81.937,48.773c30.043,15.241 56.621,30.556 59.177,33.888c2.556,3.333 18.94,13.049 36.418,21.536c83.292,40.45 298.136,166.449 316.337,185.452c24.13,25.224 25.762,54.816 6.19,110.24c-26.763,75.567 -127.086,142.366 -245.518,163.383l-0.031,0Zm-132.368,763.52c-6.375,9.983 -80.197,12.175 -419.94,12.782c-571.956,0.874 -735.722,-4.991 -796.809,-28.63c-108.777,-42.123 -189.436,-102.879 -247.612,-186.592c-154.034,-221.265 -102.51,-482.284 119.895,-607.661c132.445,-74.604 314.058,-95.355 475.914,-54.194c188.25,47.722 360.485,153.489 519.616,318.797l55.436,57.616l62.904,-45.885c88.574,-64.621 194.717,-112.773 272.373,-123.541c110.964,-15.404 111.333,-15.33 115.244,31.341c3.372,41.072 -5.282,84.32 -37.681,187.11c-9.824,31.341 -38.959,140.188 -64.721,241.838c-25.762,101.738 -50.339,190.443 -54.619,197.004l0,0.015Zm1317.334,3.762c-10.379,7.006 -21.035,11.731 -23.668,10.59c-2.633,-1.14 -229.134,-3.155 -503.232,-4.458c-274.098,-1.318 -498.396,-5.688 -498.396,-9.894c0,-4.118 15.661,-17.418 34.863,-29.682c111.795,-71.094 218.016,-188.34 279.657,-308.474c59.532,-116.016 85.848,-220.036 92.393,-365.556c3.003,-66.191 9.101,-120.401 13.659,-120.401c36.141,0 264.72,151.208 361.671,239.216c22.852,20.839 51.986,44.3 64.629,52.269c22.128,13.923 24.576,13.389 63.72,-12.086c60.178,-39.146 152.386,-82.913 208.468,-98.939c63.628,-18.129 177.702,-19.521 170.68,-2.014c-2.633,6.65 -12.92,37.206 -22.852,67.865c-9.917,30.644 -27.04,75.478 -37.866,99.561c-10.918,24.083 -40.237,97.014 -65.091,161.991c-24.946,64.962 -52.802,133.968 -62.088,153.222c-9.193,19.269 -25.947,61.822 -37.234,94.57c-11.472,33.192 -28.857,65.14 -39.328,72.234l0.015,-0.015Zm-299.768,-936.796c-49.707,32.481 -85.571,34.495 -140.56,7.88c-139.913,-67.599 -229.395,-276.156 -179.149,-417.914c32.676,-92.467 146.196,-170.3 261.086,-179.142c56.529,-4.384 58.438,-3.851 82.845,23.994c84.108,96.229 128.718,287.723 93.855,403.118c-16.569,55.068 -73.19,132.738 -118.062,162.079l-0.015,-0.015Zm-1527.804,-1266.717c-38.328,12.871 -42.516,12.427 -88.035,-10.249c-54.897,-27.238 -126.085,-98.332 -144.194,-144.039c-14.29,-35.991 -14.29,-41.679 -0.277,-84.587c20.665,-62.948 60.717,-118.386 129.442,-178.89c67.092,-59.186 158.207,-106.73 216.476,-113.039c78.472,-8.576 138.512,48.077 142.654,125.466c3.803,71.257 -75.038,248.947 -188.435,346.213c-29.689,25.461 -49.8,53.143 -67.631,59.097l-0,0.03Zm985.059,-8.146c-42.516,20.839 -60.178,21.713 -92.947,4.636c-37.049,-19.343 -164.859,-192.976 -221.203,-300.505c-51.339,-98.065 -35.864,-182.904 39.328,-215.578c75.1,-32.57 167.862,3.155 287.11,110.418c153.572,138.263 173.513,253.302 60.902,351.204c-20.203,17.596 -53.08,39.931 -73.19,49.825Zm-1433.394,-675.867c-27.579,51.395 -35.325,50.788 -91.13,-7.272c-79.011,-82.039 -92.131,-111.292 -91.669,-205.239c0.462,-88.779 15.014,-125.999 74.561,-189.303c93.763,-99.902 258.992,-114.18 368.862,-32.052c47.059,35.28 87.758,75.478 88.389,87.297c0.185,3.421 -29.319,27.579 -65.63,53.943c-36.326,26.275 -85.386,64.177 -109.054,84.232c-44.795,37.917 -150.846,164.701 -174.329,208.394Zm1744.819,-11.908c-12.196,14.1 -31.49,32.57 -42.87,41.235l-20.758,15.67l-50.985,-71.879c-73.006,-102.79 -149.383,-180.282 -247.966,-251.554c-85.571,-61.911 -85.941,-62.252 -73.375,-85.639c30.767,-57.26 155.943,-123.629 233.676,-124.074c170.865,-0.785 316.152,151.134 290.39,303.66c-8.285,48.951 -47.705,126.088 -88.127,172.581l0.015,0Zm-320.71,2290.381c-20.388,57.705 -37.511,92.555 -46.058,93.77c-15.938,2.281 -154.758,-64.355 -154.758,-74.338c0,-3.673 16.846,-28.275 37.419,-54.639c52.525,-67.065 167.677,-296.388 192.346,-382.723c11.287,-39.753 25.393,-72.234 31.229,-72.234c11.287,-0.089 127.086,56.92 146.565,72.146c9.285,7.183 8.469,13.656 -4.096,31.874c-105.235,152.704 -151.108,240.179 -202.632,386.144l-0.015,0Zm574.143,-1140.377c-6.006,20.484 -15.938,37.043 -22.036,36.776c-18.756,-0.785 -152.109,-69.346 -152.109,-78.189c0,-4.636 20.111,-37.132 44.703,-72.146c60.625,-86.512 128.811,-219.947 168.678,-330.365c18.201,-50.343 34.324,-92.807 35.864,-94.214c6.914,-6.65 124.176,51.484 131.536,65.229c16.569,30.733 10.379,46.404 -58.346,146.75c-30.952,45.174 -128.718,260.234 -148.29,326.158Zm-854.709,1722.725c-4.558,14.441 -14.013,27.238 -21.127,28.452c-16.754,2.799 -72.097,-31.518 -72.005,-44.656c0.092,-20.839 73.19,-276.333 104.142,-364.253c17.755,-50.255 32.322,-98.51 32.322,-107.263c0,-25.135 30.859,-19.092 102.679,20.054c36.141,19.699 67.185,37.206 69.002,38.88c1.817,1.748 -9.47,21.284 -25.038,43.427c-15.568,22.246 -28.318,42.553 -28.318,45.174c0,2.622 -8.007,15.581 -17.847,28.808c-29.134,39.398 -77.009,132.383 -99.491,193.153c-11.564,31.341 -24.392,64.799 -28.488,74.427c-4.188,9.627 -11.287,29.326 -15.845,43.782l0.015,0.015Zm-179.704,-1966.326c-34.863,19.61 -65.722,35.636 -68.632,35.636c-8.562,0 -175.962,-96.658 -193.085,-111.469c-18.109,-15.67 -21.389,-59.363 -5.189,-68.991c5.913,-3.495 91.854,-7.272 190.991,-8.235c189.62,-1.925 204.727,0.696 212.01,37.472c4.727,23.55 -40.145,61.644 -136.094,115.572l0,0.015Zm1375.048,190.784c-26.44,13.256 -53.711,24.498 -80.844,32.111c-75.346,21.15 -191.53,33.488 -191.53,33.488c0,0 78.01,-84.587 144.825,-120.564c119.156,-64.088 345.133,-102.094 345.133,-102.094m9.255,475.174c0,0 -138.558,1.407 -248.521,-35.458c-90.483,-30.378 -157.668,-67.51 -212.749,-117.586l-39.144,-35.636l32.769,-2.622c64.998,-5.258 207.283,30.215 294.486,73.375c94.317,46.67 173.144,117.942 173.144,117.942l0.015,-0.015Zm-721.247,-90.275c-113.704,33.533 -115.522,33.71 -107.237,14.53c15.199,-35.029 50.431,-144.824 50.431,-157.088c0,-7.006 6.652,-12.782 14.844,-12.782c21.943,0 158.13,71.805 158.13,83.358c0,21.713 -49.338,52.358 -116.153,71.968l-0.015,0.015Zm-625.76,-866.754c70.634,58.49 166.769,-34.94 103.141,-100.168c-29.227,-29.859 -92.393,-28.719 -113.427,2.103c-22.482,33.103 -18.201,74.515 10.286,98.065Zm-736.908,0c33.492,28.275 70.095,25.653 98.86,-7.272c29.581,-33.799 29.951,-63.999 1.278,-91.682c-49.245,-47.277 -141.284,-10.59 -128.903,51.395c3.003,15.33 16.015,36.687 28.765,47.544l0,0.015Zm1114.701,1330.02c0,6.221 -14.567,1.57 -52.34,-16.722c-44.148,-21.358 -47.151,-30.822 -17.847,-57.349c20.111,-18.129 21.481,-18.218 35.048,-2.977c11.472,12.871 35.14,64.799 35.14,77.048Z" style="fill:#24444e;fill-rule:nonzero;"/><path d="M3465.557,1925.761c-26.44,13.256 -53.711,24.498 -80.844,32.111c-75.346,21.15 -191.53,33.488 -191.53,33.488c0,0 78.01,-84.587 144.825,-120.564c119.156,-64.088 345.133,-102.094 345.133,-102.094m9.255,475.174c0,0 -138.558,1.407 -248.521,-35.458c-90.483,-30.378 -157.668,-67.51 -212.749,-117.586l-39.144,-35.636l32.769,-2.622c64.998,-5.258 207.283,30.215 294.486,73.375c94.317,46.67 173.144,117.942 173.144,117.942l0.015,-0.015Z" style="fill:#4ef440;fill-rule:nonzero;"/><path d="M920.926,212.071c5.913,0 -50.893,413.634 -54.342,415.648c-6.56,3.851 -446.426,-206.113 -446.426,-206.113c0,0 495.394,-209.535 500.768,-209.535Z" style="fill:#f17c21;fill-rule:nonzero;"/><path d="M931.763,93.215c8.08,0 -69.489,587.238 -74.213,590.097c-8.95,5.47 -609.613,-292.624 -609.613,-292.624c0,0 676.492,-297.472 683.826,-297.472Z" style="fill:#f17c21;fill-rule:nonzero;"/></svg>